<svg width="135" height="118" viewBox="0 0 135 118" fill="none" xmlns="http://www.w3.org/2000/svg">
<mask id="path-1-outside-1" maskUnits="userSpaceOnUse" x="0" y="-0.375" width="135" height="119" fill="black">
<rect fill="white" y="-0.375" width="135" height="119"/>
<path fill-rule="evenodd" clip-rule="evenodd" d="M36.9521 3.92188C36.6009 3.92188 36.2562 4.01447 35.9518 4.19039C35.6479 4.36632 35.395 4.61941 35.2191 4.92425V4.92428L4.64009 57.8984H15.1423C15.187 57.7933 15.2382 57.6903 15.2959 57.5898L41.8127 11.541C42.0702 11.096 42.5422 10.8233 43.0536 10.8233L58.4283 10.8331H58.4308L58.5918 10.8332H58.5968L59.8327 10.834C60.3834 10.834 60.7267 11.4334 60.4513 11.9107L59.8327 12.9861L59.8312 12.9884L59.7504 13.1289L59.7494 13.1309L33.9943 57.8984H66.9673L98.0201 3.92188H36.9521ZM34.0275 60.1953L59.8166 104.977L59.8177 104.979L59.9006 105.123L59.9021 105.125L60.5193 106.197C60.7946 106.675 60.4513 107.274 59.9006 107.274L58.6676 107.273H58.6644L58.4977 107.273H58.4952L43.1037 107.263C42.5923 107.263 42.1203 106.991 41.8664 106.546L15.2959 60.4645C15.2454 60.3765 15.2 60.2868 15.1594 60.1953H4.63966L35.2187 113.17L35.2191 113.17C35.395 113.475 35.6479 113.728 35.9518 113.903C36.2558 114.079 36.6009 114.172 36.9517 114.172H36.9521H97.9535L66.9008 60.1953H34.0275ZM98.2979 3.45059L98.2983 3.45073L98.2979 1.625C99.05 1.62489 99.7891 1.82321 100.441 2.20008C101.093 2.57695 101.634 3.11912 102.011 3.77222L132.672 56.8875C133.05 57.5435 133.25 58.2882 133.25 59.0465C133.25 59.8048 133.05 60.5495 132.672 61.2056L102.011 114.321L100.031 113.17L130.691 60.0543V60.0539C130.868 59.7478 130.961 59.4004 130.961 59.0465C130.961 58.6927 130.868 58.3453 130.691 58.0391V58.0388L100.059 4.9718L68.9163 59.1047L100.025 113.179L100.031 113.17L102.011 114.321C101.634 114.974 101.093 115.516 100.441 115.893C99.7891 116.27 99.0503 116.469 98.2979 116.469H36.9521C36.2 116.469 35.4608 116.271 34.8093 115.894C34.1574 115.517 33.6159 114.975 33.2387 114.322L2.57826 61.2063C2.19948 60.5502 2 59.8056 2 59.0472C2 58.2889 2.19948 57.5442 2.57826 56.8882L33.2387 3.77294C33.6156 3.11969 34.1574 2.57738 34.8089 2.2004C35.4608 1.82339 36.1997 1.62496 36.9521 1.625H98.2979V3.45059ZM67.6257 59.0404L67.625 59.0401V59.0408L67.6257 59.0404ZM118.227 58.8053V58.805L100.052 27.289L93.3432 39.2126L103.72 57.2295L103.722 57.2323C104.39 58.389 104.39 59.812 103.722 60.9687L103.72 60.9719L93.4308 78.8556L100.179 90.7172L118.223 59.3835V59.3832L118.223 59.3828C118.33 59.1973 118.326 58.9765 118.227 58.8053ZM101.492 93.0266L101.491 93.0288L101.41 93.1698L101.404 93.1802L100.79 94.2465C100.514 94.7274 99.8242 94.7238 99.5488 94.2429L98.9459 93.1831L98.9409 93.1741L98.8544 93.022L98.8529 93.0195L91.1986 79.5644C90.9483 79.123 90.9483 78.5775 91.2022 78.1361L101.741 59.8185C101.998 59.3735 101.998 58.828 101.741 58.3829L91.1164 39.9362C90.8625 39.4947 90.8589 38.9528 91.1092 38.5114L98.722 24.9821L98.7235 24.9792L98.8165 24.8137L98.8229 24.8026L99.4129 23.754C99.6847 23.2695 100.378 23.2659 100.654 23.7468L101.26 24.7972L101.263 24.8019L101.357 24.9652L101.358 24.9681L120.208 57.6544C120.719 58.5408 120.719 59.639 120.204 60.5327L101.492 93.0266ZM43.5468 13.1205L57.1077 13.1292L31.7835 57.1469L31.7821 57.1498C31.1137 58.3072 31.1141 59.7309 31.7828 60.888L31.7835 60.8894L57.1721 104.975L43.6004 104.967L17.2786 59.3171L17.2779 59.316C17.1754 59.1366 17.1755 58.9173 17.2782 58.7379L17.2786 58.7372L43.5468 13.1205Z"/>
</mask>
<path fill-rule="evenodd" clip-rule="evenodd" d="M36.9521 3.92188C36.6009 3.92188 36.2562 4.01447 35.9518 4.19039C35.6479 4.36632 35.395 4.61941 35.2191 4.92425V4.92428L4.64009 57.8984H15.1423C15.187 57.7933 15.2382 57.6903 15.2959 57.5898L41.8127 11.541C42.0702 11.096 42.5422 10.8233 43.0536 10.8233L58.4283 10.8331H58.4308L58.5918 10.8332H58.5968L59.8327 10.834C60.3834 10.834 60.7267 11.4334 60.4513 11.9107L59.8327 12.9861L59.8312 12.9884L59.7504 13.1289L59.7494 13.1309L33.9943 57.8984H66.9673L98.0201 3.92188H36.9521ZM34.0275 60.1953L59.8166 104.977L59.8177 104.979L59.9006 105.123L59.9021 105.125L60.5193 106.197C60.7946 106.675 60.4513 107.274 59.9006 107.274L58.6676 107.273H58.6644L58.4977 107.273H58.4952L43.1037 107.263C42.5923 107.263 42.1203 106.991 41.8664 106.546L15.2959 60.4645C15.2454 60.3765 15.2 60.2868 15.1594 60.1953H4.63966L35.2187 113.17L35.2191 113.17C35.395 113.475 35.6479 113.728 35.9518 113.903C36.2558 114.079 36.6009 114.172 36.9517 114.172H36.9521H97.9535L66.9008 60.1953H34.0275ZM98.2979 3.45059L98.2983 3.45073L98.2979 1.625C99.05 1.62489 99.7891 1.82321 100.441 2.20008C101.093 2.57695 101.634 3.11912 102.011 3.77222L132.672 56.8875C133.05 57.5435 133.25 58.2882 133.25 59.0465C133.25 59.8048 133.05 60.5495 132.672 61.2056L102.011 114.321L100.031 113.17L130.691 60.0543V60.0539C130.868 59.7478 130.961 59.4004 130.961 59.0465C130.961 58.6927 130.868 58.3453 130.691 58.0391V58.0388L100.059 4.9718L68.9163 59.1047L100.025 113.179L100.031 113.17L102.011 114.321C101.634 114.974 101.093 115.516 100.441 115.893C99.7891 116.27 99.0503 116.469 98.2979 116.469H36.9521C36.2 116.469 35.4608 116.271 34.8093 115.894C34.1574 115.517 33.6159 114.975 33.2387 114.322L2.57826 61.2063C2.19948 60.5502 2 59.8056 2 59.0472C2 58.2889 2.19948 57.5442 2.57826 56.8882L33.2387 3.77294C33.6156 3.11969 34.1574 2.57738 34.8089 2.2004C35.4608 1.82339 36.1997 1.62496 36.9521 1.625H98.2979V3.45059ZM67.6257 59.0404L67.625 59.0401V59.0408L67.6257 59.0404ZM118.227 58.8053V58.805L100.052 27.289L93.3432 39.2126L103.72 57.2295L103.722 57.2323C104.39 58.389 104.39 59.812 103.722 60.9687L103.72 60.9719L93.4308 78.8556L100.179 90.7172L118.223 59.3835V59.3832L118.223 59.3828C118.33 59.1973 118.326 58.9765 118.227 58.8053ZM101.492 93.0266L101.491 93.0288L101.41 93.1698L101.404 93.1802L100.79 94.2465C100.514 94.7274 99.8242 94.7238 99.5488 94.2429L98.9459 93.1831L98.9409 93.1741L98.8544 93.022L98.8529 93.0195L91.1986 79.5644C90.9483 79.123 90.9483 78.5775 91.2022 78.1361L101.741 59.8185C101.998 59.3735 101.998 58.828 101.741 58.3829L91.1164 39.9362C90.8625 39.4947 90.8589 38.9528 91.1092 38.5114L98.722 24.9821L98.7235 24.9792L98.8165 24.8137L98.8229 24.8026L99.4129 23.754C99.6847 23.2695 100.378 23.2659 100.654 23.7468L101.26 24.7972L101.263 24.8019L101.357 24.9652L101.358 24.9681L120.208 57.6544C120.719 58.5408 120.719 59.639 120.204 60.5327L101.492 93.0266ZM43.5468 13.1205L57.1077 13.1292L31.7835 57.1469L31.7821 57.1498C31.1137 58.3072 31.1141 59.7309 31.7828 60.888L31.7835 60.8894L57.1721 104.975L43.6004 104.967L17.2786 59.3171L17.2779 59.316C17.1754 59.1366 17.1755 58.9173 17.2782 58.7379L17.2786 58.7372L43.5468 13.1205Z" fill="white"/>
<path fill-rule="evenodd" clip-rule="evenodd" d="M36.9521 3.92188C36.6009 3.92188 36.2562 4.01447 35.9518 4.19039C35.6479 4.36632 35.395 4.61941 35.2191 4.92425V4.92428L4.64009 57.8984H15.1423C15.187 57.7933 15.2382 57.6903 15.2959 57.5898L41.8127 11.541C42.0702 11.096 42.5422 10.8233 43.0536 10.8233L58.4283 10.8331H58.4308L58.5918 10.8332H58.5968L59.8327 10.834C60.3834 10.834 60.7267 11.4334 60.4513 11.9107L59.8327 12.9861L59.8312 12.9884L59.7504 13.1289L59.7494 13.1309L33.9943 57.8984H66.9673L98.0201 3.92188H36.9521ZM34.0275 60.1953L59.8166 104.977L59.8177 104.979L59.9006 105.123L59.9021 105.125L60.5193 106.197C60.7946 106.675 60.4513 107.274 59.9006 107.274L58.6676 107.273H58.6644L58.4977 107.273H58.4952L43.1037 107.263C42.5923 107.263 42.1203 106.991 41.8664 106.546L15.2959 60.4645C15.2454 60.3765 15.2 60.2868 15.1594 60.1953H4.63966L35.2187 113.17L35.2191 113.17C35.395 113.475 35.6479 113.728 35.9518 113.903C36.2558 114.079 36.6009 114.172 36.9517 114.172H36.9521H97.9535L66.9008 60.1953H34.0275ZM98.2979 3.45059L98.2983 3.45073L98.2979 1.625C99.05 1.62489 99.7891 1.82321 100.441 2.20008C101.093 2.57695 101.634 3.11912 102.011 3.77222L132.672 56.8875C133.05 57.5435 133.25 58.2882 133.25 59.0465C133.25 59.8048 133.05 60.5495 132.672 61.2056L102.011 114.321L100.031 113.17L130.691 60.0543V60.0539C130.868 59.7478 130.961 59.4004 130.961 59.0465C130.961 58.6927 130.868 58.3453 130.691 58.0391V58.0388L100.059 4.9718L68.9163 59.1047L100.025 113.179L100.031 113.17L102.011 114.321C101.634 114.974 101.093 115.516 100.441 115.893C99.7891 116.27 99.0503 116.469 98.2979 116.469H36.9521C36.2 116.469 35.4608 116.271 34.8093 115.894C34.1574 115.517 33.6159 114.975 33.2387 114.322L2.57826 61.2063C2.19948 60.5502 2 59.8056 2 59.0472C2 58.2889 2.19948 57.5442 2.57826 56.8882L33.2387 3.77294C33.6156 3.11969 34.1574 2.57738 34.8089 2.2004C35.4608 1.82339 36.1997 1.62496 36.9521 1.625H98.2979V3.45059ZM67.6257 59.0404L67.625 59.0401V59.0408L67.6257 59.0404ZM118.227 58.8053V58.805L100.052 27.289L93.3432 39.2126L103.72 57.2295L103.722 57.2323C104.39 58.389 104.39 59.812 103.722 60.9687L103.72 60.9719L93.4308 78.8556L100.179 90.7172L118.223 59.3835V59.3832L118.223 59.3828C118.33 59.1973 118.326 58.9765 118.227 58.8053ZM101.492 93.0266L101.491 93.0288L101.41 93.1698L101.404 93.1802L100.79 94.2465C100.514 94.7274 99.8242 94.7238 99.5488 94.2429L98.9459 93.1831L98.9409 93.1741L98.8544 93.022L98.8529 93.0195L91.1986 79.5644C90.9483 79.123 90.9483 78.5775 91.2022 78.1361L101.741 59.8185C101.998 59.3735 101.998 58.828 101.741 58.3829L91.1164 39.9362C90.8625 39.4947 90.8589 38.9528 91.1092 38.5114L98.722 24.9821L98.7235 24.9792L98.8165 24.8137L98.8229 24.8026L99.4129 23.754C99.6847 23.2695 100.378 23.2659 100.654 23.7468L101.26 24.7972L101.263 24.8019L101.357 24.9652L101.358 24.9681L120.208 57.6544C120.719 58.5408 120.719 59.639 120.204 60.5327L101.492 93.0266ZM43.5468 13.1205L57.1077 13.1292L31.7835 57.1469L31.7821 57.1498C31.1137 58.3072 31.1141 59.7309 31.7828 60.888L31.7835 60.8894L57.1721 104.975L43.6004 104.967L17.2786 59.3171L17.2779 59.316C17.1754 59.1366 17.1755 58.9173 17.2782 58.7379L17.2786 58.7372L43.5468 13.1205Z" stroke="white" stroke-width="2.34375" mask="url(#path-1-outside-1)"/>
</svg>
